<svg xmlns="http://www.w3.org/2000/svg" xmlns:xlink="http://www.w3.org/1999/xlink" width="500" zoomAndPan="magnify" viewBox="140 76 95 220" height="500" preserveAspectRatio="xMidYMid meet" version="1.0"><defs><clipPath id="66c8af9358"><path d="M 102.566406 78.785156 L 271 78.785156 L 271 296.285156 L 102.566406 296.285156 Z M 102.566406 78.785156 " clip-rule="nonzero"/></clipPath></defs><g clip-path="url(#66c8af9358)"><path fill="#e76f51" d="M 134.660156 231.191406 Z M 190.449219 197.125 C 186.117188 197.765625 181.738281 198.589844 179.289062 202.992188 C 181.816406 193.1875 192.25 187.800781 201.722656 187.246094 C 190.878906 184.085938 175.03125 187.25 167.296875 195.757812 C 168.097656 195.257812 169.59375 194.683594 170.378906 194.476562 C 165.789062 201.136719 166.933594 208.003906 169.191406 214.929688 C 168.25 209.585938 170.207031 201 174.617188 198.445312 C 163.128906 222.03125 177.621094 262.773438 215.511719 268.941406 C 194.0625 262.953125 172.539062 236.753906 183.511719 214.285156 C 182.640625 236.621094 199.007812 249.648438 211.367188 251.140625 C 199.449219 246.488281 187.207031 235.554688 188.550781 221.734375 C 194.308594 250.035156 221.773438 257.816406 239.757812 248.796875 C 224.507812 255.296875 207.382812 246.402344 202.101562 231.964844 C 200.816406 228.445312 196.007812 211.984375 212.527344 208.964844 C 231.25 205.546875 247.835938 222.808594 263.011719 204.878906 C 239.355469 217.0625 215.320312 192.386719 190.449219 197.125 Z M 203.027344 89.417969 C 204.179688 94.847656 198.484375 101.742188 195.339844 104.585938 C 202.167969 99.804688 217.0625 86.609375 216.675781 78.785156 C 222.882812 84.847656 217.074219 93.050781 215.375 99.808594 C 210.320312 119.871094 210.769531 132.605469 204.027344 145.039062 C 208.972656 144.441406 212.9375 146.84375 214.964844 147.136719 C 210.257812 146.804688 200.144531 147.539062 195.640625 149.535156 C 200.132812 149.085938 201.726562 150.484375 203.128906 150.285156 C 194.738281 151.484375 192.652344 155.351562 185 157.027344 C 178.527344 158.445312 169.820312 157.667969 167.117188 151.363281 C 164.449219 145.136719 166.84375 136.285156 169.398438 130.210938 C 172.640625 121.851562 177.890625 114.898438 184.554688 108.992188 C 190.621094 102.589844 200.574219 98.410156 203.027344 89.417969 Z M 189.515625 122.164062 C 182.988281 129.667969 178.742188 139.480469 183.183594 149.015625 C 183.707031 144.785156 184.242188 140.46875 184.8125 135.867188 L 187.417969 143.351562 L 187.691406 143.3125 L 187.691406 132.320312 L 191.375 140.679688 C 190.988281 136.773438 190.730469 133.546875 190.519531 129.777344 L 190.785156 129.746094 C 191.46875 132.128906 192.148438 134.511719 192.890625 137.113281 C 193.066406 133.289062 193.230469 129.695312 193.394531 126.101562 C 193.46875 126.109375 193.542969 126.113281 193.617188 126.121094 C 194.316406 129.597656 195.015625 133.074219 195.714844 136.554688 L 195.84375 136.527344 L 196.960938 123.351562 L 197.382812 123.367188 C 197.632812 125.746094 197.886719 128.121094 198.175781 130.820312 C 199.71875 126.175781 198.652344 121.382812 200.785156 116.804688 C 200.589844 119.367188 200.421875 121.558594 200.253906 123.753906 C 202.160156 118.859375 204.074219 114.015625 206.902344 109.339844 C 205.363281 115.003906 203.050781 120.519531 202.578125 126.542969 C 201.859375 132.945312 201.183594 139.457031 196.878906 144.808594 C 209.671875 133.605469 210.253906 109.230469 215.972656 93.679688 C 206.339844 102.398438 198.191406 112.523438 189.515625 122.164062 Z M 267.511719 199.386719 C 267.148438 199.738281 266.589844 200.015625 266.042969 200.164062 C 265.476562 200.3125 264.921875 200.277344 264.375 200.054688 C 261.335938 198.824219 259.886719 195.230469 261.726562 192.277344 C 229.503906 176.277344 247.914062 163.351562 218.539062 135.234375 C 214.074219 130.886719 211.4375 124.804688 212.191406 118.65625 C 212.300781 117.777344 214.40625 102.019531 218.128906 97.507812 C 222.820312 91.882812 229.527344 87.03125 228.960938 78.804688 C 232.277344 82.789062 230.617188 87.679688 230.402344 92.265625 C 229.589844 98.535156 230.921875 122.042969 230.097656 130.589844 C 229.855469 133.105469 228.785156 135.746094 228.730469 138.207031 C 228.699219 139.65625 229.234375 141.066406 230.136719 142.203125 C 251.523438 169.050781 232.875 178.554688 266.796875 192.550781 C 272.367188 194.527344 270.351562 195.582031 267.511719 199.386719 Z M 228.703125 128.71875 C 229.816406 117.449219 229.347656 106.167969 229.027344 94.644531 C 223.59375 105.9375 213.496094 119.964844 221.351562 132.183594 C 221.332031 130.28125 220.957031 127.136719 220.527344 124.886719 C 222.082031 126.535156 223.867188 131.707031 223.992188 131.664062 C 223.957031 127.285156 223.199219 124.496094 222.308594 118.894531 C 223.65625 120.695312 224.472656 123.265625 225.230469 124.964844 C 225.3125 124.929688 225.304688 119.792969 224.179688 113.578125 C 225.230469 115.074219 225.902344 116.871094 226.578125 119.496094 C 226.671875 119.476562 227.046875 106.761719 227.175781 106.757812 C 228.824219 113.800781 228.144531 121.21875 228.703125 128.71875 Z M 269.171875 195.589844 C 267.425781 194.847656 266.238281 195.390625 265.683594 197.183594 Z M 125.304688 222.515625 C 124.753906 229.828125 127.257812 237.621094 127.101562 237.644531 C 122.816406 230.109375 118.953125 220.316406 116.675781 211.597656 C 115.882812 218.019531 118.8125 225.925781 118.988281 227.613281 C 110.769531 214.382812 111.394531 196.640625 110.414062 190.8125 C 106.171875 226.921875 123.28125 257.292969 150.53125 267.976562 C 163.917969 273.703125 188.574219 277.121094 186.9375 296.214844 C 192.105469 267.796875 138.152344 274.96875 125.304688 222.515625 Z M 154.792969 170.722656 C 160.617188 176.0625 167.792969 176.140625 175.289062 175.121094 C 162.109375 181.277344 154.742188 191.113281 155.097656 205.976562 C 156.0625 199.253906 158.152344 193.070312 163.660156 188.554688 C 155.976562 199.332031 159.335938 224.570312 168.519531 233.136719 C 156.832031 209.316406 164.496094 179.960938 188.449219 176.097656 C 183.640625 176.425781 178.703125 177.894531 173.941406 180.058594 C 179.773438 175.925781 186.296875 174.011719 193.792969 173.9375 C 181.378906 168.214844 167.554688 174.808594 154.792969 170.722656 Z M 119.816406 209.851562 C 103.347656 163.367188 153.394531 133.746094 154.96875 132.679688 C 146.894531 135.402344 140.558594 138.1875 139.304688 138.699219 C 144.503906 134.339844 151.089844 129.109375 167.984375 123.082031 C 165.835938 125.816406 163.953125 128.730469 162.476562 131.90625 C 157.78125 141.992188 156.984375 155.378906 166.933594 161.480469 C 162.871094 165.210938 158.21875 167.601562 152.503906 167.402344 C 159.976562 170.171875 166.320312 167.839844 172.566406 164.246094 C 173.96875 163.449219 175.476562 163.007812 177.089844 162.917969 C 181.617188 162.648438 185.953125 161.582031 190.09375 159.722656 C 160.28125 166.914062 160.441406 147.800781 162.925781 138.558594 C 167.371094 122.015625 184.550781 108.332031 193.292969 99.296875 C 186.304688 105.902344 177.875 112.039062 171.125 119.394531 C 151.890625 123.617188 136.507812 135.101562 129.316406 143.691406 C 133.511719 141.792969 135.949219 141.972656 135.949219 141.972656 C 124.722656 150.484375 102.746094 179.847656 119.816406 209.851562 Z M 215.722656 173.738281 C 209.199219 169.988281 204.554688 169.539062 192.640625 168.1875 C 206.351562 168.1875 209.347656 169.988281 214.515625 170.210938 C 220.300781 170.460938 224.1875 167.414062 228.960938 170.375 C 227.480469 166.960938 224.652344 165.441406 222.179688 163.554688 C 226.71875 164.777344 229.132812 166.820312 231.898438 170.4375 C 232.054688 170.351562 231.445312 165.265625 230.015625 161.414062 C 235.289062 168.902344 233.890625 178.59375 239.753906 185.738281 C 234.292969 181.167969 231.898438 181.222656 229.125 181.222656 C 225.332031 181.222656 222.945312 179.839844 221.347656 178.425781 C 220.039062 177.273438 218.421875 175.289062 215.722656 173.738281 Z M 229.617188 175.007812 C 229.617188 177.21875 227.9375 179.015625 225.867188 179.015625 C 225.449219 179.011719 225.042969 178.941406 224.652344 178.796875 C 225.324219 179.480469 226.140625 179.824219 227.101562 179.835938 C 229.175781 179.835938 230.855469 177.925781 230.855469 175.566406 C 230.855469 173.296875 229.292969 171.445312 227.328125 171.3125 C 228.671875 171.921875 229.617188 173.347656 229.617188 175.003906 Z M 223.246094 172.796875 C 223.246094 172.964844 223.277344 173.128906 223.339844 173.28125 C 223.40625 173.4375 223.496094 173.578125 223.617188 173.695312 C 223.738281 173.816406 223.875 173.90625 224.03125 173.972656 C 224.1875 174.035156 224.347656 174.070312 224.519531 174.070312 C 224.6875 174.070312 224.847656 174.035156 225.003906 173.972656 C 225.160156 173.90625 225.300781 173.816406 225.417969 173.695312 C 225.539062 173.578125 225.628906 173.4375 225.695312 173.28125 C 225.757812 173.128906 225.792969 172.964844 225.792969 172.796875 C 225.792969 172.625 225.757812 172.464844 225.695312 172.308594 C 225.628906 172.152344 225.539062 172.015625 225.417969 171.894531 C 225.300781 171.777344 225.160156 171.683594 225.003906 171.617188 C 224.847656 171.554688 224.6875 171.523438 224.519531 171.523438 C 224.347656 171.523438 224.1875 171.554688 224.03125 171.617188 C 223.875 171.683594 223.738281 171.777344 223.617188 171.894531 C 223.496094 172.015625 223.40625 172.152344 223.339844 172.308594 C 223.277344 172.464844 223.246094 172.625 223.246094 172.796875 Z M 215.582031 137.425781 C 221.078125 142.070312 226.394531 146.910156 230.511719 152.882812 C 226.34375 142.210938 214.59375 136.921875 211.3125 125.679688 C 209.347656 131.785156 211.488281 133.417969 215.582031 137.425781 Z M 109.246094 176.160156 C 104.960938 185.890625 104.929688 200.410156 105.0625 204.671875 C 104.109375 202.933594 103.105469 199.738281 102.625 197.257812 C 102.828125 206.742188 105.429688 216.152344 109.671875 225.066406 C 104.308594 196.800781 108.394531 180.78125 109.246094 176.160156 Z M 188.199219 169.390625 C 181.628906 166.464844 172.863281 169.988281 166.347656 170.363281 C 172.863281 171.632812 181.238281 168.460938 188.199219 169.390625 Z M 186.902344 266.3125 C 182.394531 255.699219 175.660156 246.589844 167.238281 238.691406 C 136.113281 211.964844 121.40625 185.332031 155.703125 152.882812 C 142.324219 161.105469 131.304688 174.339844 131.363281 190.667969 C 123.652344 172.429688 136.085938 153.988281 149.042969 141.816406 C 119.609375 158.5625 111.445312 199.796875 133.894531 225.792969 L 134.300781 225.570312 C 130.90625 219.082031 128.121094 212.441406 129.144531 204.785156 C 133.113281 224.992188 143.859375 241.125 158.933594 254.671875 C 150.339844 249.613281 144.207031 242.207031 138.863281 233.984375 C 145.132812 252.691406 162.582031 263.199219 178.152344 273.527344 C 193.417969 284.648438 213.140625 288.167969 231.5 284.855469 C 215.492188 284.804688 194.953125 282.449219 186.902344 266.3125 Z M 186.902344 266.3125 " fill-opacity="1" fill-rule="nonzero"/></g></svg>