<svg xmlns="http://www.w3.org/2000/svg" xmlns:xlink="http://www.w3.org/1999/xlink" width="200" height="50" viewBox="83 -13 210 400" preserveAspectRatio="xMidYMid slice" version="1.0"><defs fill="#ef4444"><g/><clipPath id="4b7457a0b2" fill="#ef4444"><path d="M 226.824219 164.289062 L 262.824219 164.289062 L 262.824219 210.789062 L 226.824219 210.789062 Z M 226.824219 164.289062 " clip-rule="nonzero" fill="#ef4444"/></clipPath></defs><g fill="#ef4444" fill-opacity="1"><g transform="translate(85.605446, 205.124987)"><g><path d="M 11.5 -19.046875 L 1 -19.046875 C 1.101562 -23.453125 1.726562 -26.910156 2.875 -29.421875 C 4.019531 -31.941406 5.675781 -33.734375 7.84375 -34.796875 C 10.007812 -35.867188 12.695312 -36.40625 15.90625 -36.40625 C 16.96875 -36.40625 18.191406 -36.34375 19.578125 -36.21875 C 20.960938 -36.101562 22.300781 -35.894531 23.59375 -35.59375 L 23.59375 -22.40625 L 17.546875 -22.40625 L 16.75 -28.453125 C 15.914062 -28.453125 15.171875 -28.347656 14.515625 -28.140625 C 13.867188 -27.941406 13.328125 -27.535156 12.890625 -26.921875 C 12.460938 -26.304688 12.128906 -25.363281 11.890625 -24.09375 C 11.660156 -22.832031 11.53125 -21.148438 11.5 -19.046875 Z M 1 -16.546875 L 11.5 -16.546875 C 11.664062 -13.148438 12.378906 -10.804688 13.640625 -9.515625 C 14.910156 -8.234375 16.8125 -7.59375 19.34375 -7.59375 C 20.144531 -7.59375 20.910156 -7.644531 21.640625 -7.75 C 22.378906 -7.851562 23.164062 -7.96875 24 -8.09375 L 24 -0.203125 C 23.03125 0.0351562 21.863281 0.210938 20.5 0.328125 C 19.132812 0.441406 17.914062 0.5 16.84375 0.5 C 11.34375 0.5 7.367188 -0.929688 4.921875 -3.796875 C 2.472656 -6.660156 1.164062 -10.910156 1 -16.546875 Z M 1 -16.546875 " fill="#ef4444"/></g></g></g><g fill="#ef4444" fill-opacity="1"><g transform="translate(113.851491, 205.124987)"><g><path d="M 10.34375 -36.40625 L 20.90625 -36.40625 L 29.25 0 L 18.90625 0 L 18.34375 -2.34375 L 13.703125 -2.34375 L 15.046875 -10.09375 L 16.546875 -10.09375 Z M 10.703125 0 L 0.25 0 L 8.546875 -33.046875 L 13.203125 -13.546875 Z M 10.703125 0 " fill="#ef4444"/></g></g></g><g fill="#ef4444" fill-opacity="1"><g transform="translate(146.346876, 205.124987)"><g><path d="M 13.90625 -23.09375 L 9.796875 -14.34375 L 7.703125 -15.296875 C 5.734375 -16.203125 4.210938 -17.40625 3.140625 -18.90625 C 2.078125 -20.40625 1.546875 -22.585938 1.546875 -25.453125 C 1.546875 -29.117188 2.503906 -31.859375 4.421875 -33.671875 C 6.335938 -35.492188 9.515625 -36.421875 13.953125 -36.453125 C 15.785156 -36.453125 17.453125 -36.367188 18.953125 -36.203125 C 20.453125 -36.035156 21.648438 -35.859375 22.546875 -35.671875 C 23.453125 -35.492188 23.90625 -35.40625 23.90625 -35.40625 L 22.90625 -27.34375 C 22.90625 -27.34375 22.492188 -27.394531 21.671875 -27.5 C 20.859375 -27.601562 19.847656 -27.695312 18.640625 -27.78125 C 17.441406 -27.863281 16.28125 -27.90625 15.15625 -27.90625 C 13.945312 -27.90625 13.035156 -27.726562 12.421875 -27.375 C 11.804688 -27.019531 11.5 -26.363281 11.5 -25.40625 C 11.5 -24.863281 11.710938 -24.425781 12.140625 -24.09375 C 12.578125 -23.757812 13.164062 -23.425781 13.90625 -23.09375 Z M 12.09375 -13.25 L 16.25 -22.09375 L 18.40625 -21.15625 C 20.664062 -20.15625 22.3125 -18.910156 23.34375 -17.421875 C 24.382812 -15.941406 24.90625 -13.832031 24.90625 -11.09375 C 24.90625 -7.394531 23.9375 -4.546875 22 -2.546875 C 20.0625 -0.546875 16.878906 0.46875 12.453125 0.5 C 10.253906 0.5 8.203125 0.359375 6.296875 0.078125 C 4.398438 -0.203125 2.71875 -0.53125 1.25 -0.90625 L 2.25 -8.953125 C 2.25 -8.953125 2.65625 -8.882812 3.46875 -8.75 C 4.289062 -8.613281 5.382812 -8.476562 6.75 -8.34375 C 8.113281 -8.21875 9.613281 -8.15625 11.25 -8.15625 C 12.519531 -8.15625 13.46875 -8.335938 14.09375 -8.703125 C 14.726562 -9.066406 15.046875 -9.664062 15.046875 -10.5 C 15.046875 -11.0625 14.894531 -11.507812 14.59375 -11.84375 C 14.300781 -12.175781 13.769531 -12.507812 13 -12.84375 Z M 12.09375 -13.25 " fill="#ef4444"/></g></g></g><g fill="#ef4444" fill-opacity="1"><g transform="translate(175.492784, 205.124987)"><g><path d="M 3.203125 -28 L 0 -36 L 23.953125 -36 L 22.453125 -28 Z M 2.75 -25.5 L 12.5 -25.5 L 12.5 -22.5 L 21.84375 -22.5 L 20.34375 -14.5 L 12.5 -14.5 L 12.5 -8 L 24.296875 -8 L 22.796875 0 L 2.75 0 Z M 2.75 -25.5 " fill="#ef4444"/></g></g></g><g fill="#ef4444" fill-opacity="1"><g transform="translate(203.538864, 205.124987)"><g><path d="M 3.203125 -28 L 0 -36 L 23.203125 -36 L 21.703125 -28 Z M 2.75 -25.5 L 12.5 -25.5 L 12.5 -21.203125 L 20.796875 -21.203125 L 19.296875 -13.203125 L 12.5 -13.203125 L 12.5 0 L 2.75 0 Z M 2.75 -25.5 " fill="#ef4444"/></g></g></g><g fill="#ef4444" fill-opacity="1"><g transform="translate(230.238252, 205.124987)"><g/></g></g><g fill="#ef4444" fill-opacity="1"><g transform="translate(245.736278, 205.124987)"><g/></g></g><g fill="#ef4444" fill-opacity="1"><g transform="translate(261.23434, 205.124987)"><g><path d="M 21.40625 -18.15625 L 16.15625 -29.34375 L 18.25 -36 L 27.75 -36 Z M 0.703125 -36 L 10.40625 -36 L 27.25 0 L 17.75 0 Z M 7.09375 -16.796875 L 12.25 -6.09375 L 9.90625 0 L 0.453125 0 Z M 7.09375 -16.796875 " fill="#ef4444"/></g></g></g><g clip-path="url(#ef4444a0b2)"><path fill="#ef4444" d="M 233.671875 196.828125 Z M 245.582031 189.554688 C 244.65625 189.691406 243.722656 189.867188 243.199219 190.808594 C 243.738281 188.714844 245.964844 187.5625 247.988281 187.445312 C 245.675781 186.769531 242.289062 187.445312 240.640625 189.261719 C 240.808594 189.15625 241.128906 189.03125 241.296875 188.988281 C 240.316406 190.410156 240.5625 191.875 241.042969 193.355469 C 240.84375 192.214844 241.261719 190.382812 242.203125 189.835938 C 239.75 194.871094 242.84375 203.570312 250.933594 204.886719 C 246.351562 203.609375 241.757812 198.015625 244.101562 193.21875 C 243.914062 197.984375 247.410156 200.765625 250.046875 201.085938 C 247.503906 200.09375 244.890625 197.757812 245.175781 194.808594 C 246.40625 200.851562 252.269531 202.511719 256.109375 200.585938 C 252.851562 201.972656 249.195312 200.074219 248.070312 196.992188 C 247.796875 196.242188 246.769531 192.726562 250.296875 192.082031 C 254.292969 191.351562 257.832031 195.039062 261.074219 191.210938 C 256.023438 193.8125 250.890625 188.542969 245.582031 189.554688 Z M 248.265625 166.5625 C 248.511719 167.71875 247.296875 169.191406 246.625 169.800781 C 248.085938 168.777344 251.265625 165.960938 251.179688 164.289062 C 252.507812 165.585938 251.265625 167.335938 250.902344 168.777344 C 249.824219 173.0625 249.921875 175.78125 248.480469 178.433594 C 249.535156 178.308594 250.382812 178.820312 250.816406 178.882812 C 249.8125 178.8125 247.652344 178.96875 246.691406 179.394531 C 247.648438 179.296875 247.988281 179.597656 248.289062 179.554688 C 246.496094 179.8125 246.050781 180.636719 244.417969 180.992188 C 243.035156 181.296875 241.179688 181.128906 240.601562 179.785156 C 240.03125 178.457031 240.542969 176.566406 241.085938 175.269531 C 241.78125 173.484375 242.902344 172 244.324219 170.738281 C 245.617188 169.371094 247.742188 168.480469 248.265625 166.5625 Z M 245.382812 173.550781 C 243.988281 175.152344 243.082031 177.246094 244.03125 179.285156 C 244.144531 178.378906 244.257812 177.460938 244.378906 176.476562 L 244.933594 178.074219 L 244.992188 178.066406 L 244.992188 175.71875 L 245.777344 177.503906 C 245.695312 176.671875 245.640625 175.980469 245.597656 175.175781 L 245.652344 175.171875 C 245.800781 175.679688 245.945312 176.1875 246.105469 176.742188 C 246.140625 175.925781 246.175781 175.160156 246.210938 174.390625 C 246.226562 174.394531 246.242188 174.394531 246.257812 174.394531 C 246.40625 175.136719 246.558594 175.878906 246.707031 176.625 L 246.734375 176.617188 L 246.972656 173.804688 L 247.0625 173.808594 C 247.117188 174.316406 247.171875 174.824219 247.230469 175.398438 C 247.5625 174.40625 247.332031 173.386719 247.789062 172.40625 C 247.746094 172.953125 247.710938 173.421875 247.675781 173.890625 C 248.082031 172.847656 248.492188 171.8125 249.09375 170.8125 C 248.765625 172.023438 248.273438 173.199219 248.171875 174.488281 C 248.015625 175.851562 247.875 177.242188 246.953125 178.386719 C 249.6875 175.996094 249.808594 170.789062 251.03125 167.46875 C 248.976562 169.332031 247.234375 171.492188 245.382812 173.550781 Z M 262.035156 190.039062 C 261.957031 190.113281 261.835938 190.171875 261.71875 190.203125 C 261.597656 190.234375 261.480469 190.226562 261.363281 190.179688 C 260.714844 189.917969 260.40625 189.148438 260.800781 188.519531 C 253.917969 185.101562 257.851562 182.34375 251.578125 176.34375 C 250.625 175.414062 250.0625 174.117188 250.222656 172.800781 C 250.246094 172.613281 250.695312 169.25 251.492188 168.289062 C 252.492188 167.085938 253.925781 166.050781 253.804688 164.292969 C 254.511719 165.144531 254.15625 166.191406 254.113281 167.167969 C 253.9375 168.507812 254.222656 173.523438 254.046875 175.351562 C 253.996094 175.886719 253.765625 176.453125 253.753906 176.976562 C 253.746094 177.285156 253.863281 177.585938 254.054688 177.828125 C 258.621094 183.5625 254.640625 185.589844 261.882812 188.578125 C 263.070312 189 262.640625 189.226562 262.035156 190.039062 Z M 253.75 174.949219 C 253.988281 172.546875 253.886719 170.136719 253.816406 167.675781 C 252.65625 170.085938 250.5 173.082031 252.179688 175.691406 C 252.175781 175.285156 252.09375 174.613281 252.003906 174.132812 C 252.335938 174.484375 252.714844 175.589844 252.742188 175.578125 C 252.734375 174.644531 252.574219 174.050781 252.382812 172.855469 C 252.671875 173.238281 252.84375 173.785156 253.007812 174.148438 C 253.023438 174.140625 253.023438 173.046875 252.78125 171.71875 C 253.007812 172.039062 253.152344 172.421875 253.292969 172.980469 C 253.316406 172.976562 253.394531 170.261719 253.421875 170.261719 C 253.773438 171.765625 253.628906 173.351562 253.75 174.949219 Z M 262.386719 189.226562 C 262.015625 189.066406 261.761719 189.183594 261.644531 189.566406 Z M 231.675781 194.976562 C 231.558594 196.535156 232.089844 198.199219 232.058594 198.207031 C 231.144531 196.597656 230.320312 194.503906 229.832031 192.644531 C 229.664062 194.015625 230.289062 195.703125 230.324219 196.0625 C 228.570312 193.238281 228.707031 189.449219 228.496094 188.207031 C 227.589844 195.914062 231.242188 202.398438 237.058594 204.679688 C 239.917969 205.902344 245.183594 206.632812 244.832031 210.707031 C 245.9375 204.640625 234.417969 206.171875 231.675781 194.976562 Z M 237.96875 183.917969 C 239.214844 185.058594 240.746094 185.074219 242.34375 184.855469 C 239.53125 186.171875 237.960938 188.269531 238.035156 191.445312 C 238.242188 190.007812 238.6875 188.6875 239.863281 187.726562 C 238.222656 190.027344 238.941406 195.414062 240.902344 197.242188 C 238.40625 192.15625 240.042969 185.890625 245.15625 185.066406 C 244.128906 185.136719 243.074219 185.449219 242.058594 185.910156 C 243.300781 185.027344 244.695312 184.621094 246.296875 184.605469 C 243.644531 183.382812 240.695312 184.789062 237.96875 183.917969 Z M 230.503906 192.273438 C 226.988281 182.347656 237.671875 176.023438 238.007812 175.796875 C 236.285156 176.378906 234.929688 176.972656 234.664062 177.082031 C 235.773438 176.152344 237.179688 175.035156 240.785156 173.746094 C 240.328125 174.332031 239.925781 174.953125 239.609375 175.632812 C 238.609375 177.785156 238.4375 180.640625 240.5625 181.945312 C 239.695312 182.742188 238.703125 183.25 237.480469 183.210938 C 239.078125 183.800781 240.429688 183.300781 241.765625 182.535156 C 242.0625 182.367188 242.386719 182.269531 242.730469 182.253906 C 243.695312 182.195312 244.621094 181.964844 245.507812 181.570312 C 239.140625 183.105469 239.175781 179.023438 239.707031 177.050781 C 240.65625 173.519531 244.324219 170.597656 246.1875 168.667969 C 244.695312 170.082031 242.898438 171.390625 241.457031 172.960938 C 237.351562 173.859375 234.066406 176.3125 232.53125 178.148438 C 233.425781 177.742188 233.945312 177.78125 233.945312 177.78125 C 231.550781 179.597656 226.859375 185.867188 230.503906 192.273438 Z M 250.976562 184.5625 C 249.585938 183.761719 248.59375 183.664062 246.050781 183.378906 C 248.976562 183.378906 249.617188 183.761719 250.71875 183.808594 C 251.953125 183.863281 252.785156 183.210938 253.804688 183.84375 C 253.488281 183.113281 252.882812 182.789062 252.355469 182.386719 C 253.324219 182.648438 253.839844 183.085938 254.429688 183.855469 C 254.464844 183.839844 254.335938 182.753906 254.027344 181.929688 C 255.15625 183.527344 254.855469 185.597656 256.109375 187.125 C 254.941406 186.148438 254.429688 186.160156 253.839844 186.160156 C 253.027344 186.160156 252.519531 185.863281 252.179688 185.5625 C 251.898438 185.316406 251.554688 184.894531 250.976562 184.5625 Z M 253.945312 184.832031 C 253.945312 185.304688 253.585938 185.6875 253.144531 185.6875 C 253.054688 185.6875 252.96875 185.671875 252.882812 185.640625 C 253.027344 185.789062 253.203125 185.863281 253.40625 185.863281 C 253.847656 185.863281 254.207031 185.457031 254.207031 184.953125 C 254.207031 184.46875 253.875 184.074219 253.453125 184.042969 C 253.742188 184.175781 253.945312 184.476562 253.945312 184.832031 Z M 252.582031 184.359375 C 252.582031 184.4375 252.609375 184.5 252.664062 184.554688 C 252.714844 184.605469 252.78125 184.632812 252.855469 184.632812 C 252.929688 184.632812 252.996094 184.605469 253.046875 184.554688 C 253.101562 184.5 253.128906 184.4375 253.128906 184.359375 C 253.128906 184.285156 253.101562 184.222656 253.046875 184.167969 C 252.996094 184.113281 252.929688 184.089844 252.855469 184.089844 C 252.78125 184.089844 252.714844 184.113281 252.664062 184.167969 C 252.609375 184.222656 252.582031 184.285156 252.582031 184.359375 Z M 250.949219 176.808594 C 252.121094 177.800781 253.257812 178.835938 254.132812 180.109375 C 253.246094 177.832031 250.738281 176.703125 250.035156 174.300781 C 249.617188 175.605469 250.074219 175.953125 250.949219 176.808594 Z M 228.246094 185.078125 C 227.332031 187.15625 227.324219 190.253906 227.351562 191.164062 C 227.148438 190.792969 226.933594 190.113281 226.832031 189.582031 C 226.875 191.609375 227.429688 193.617188 228.335938 195.519531 C 227.191406 189.484375 228.066406 186.066406 228.246094 185.078125 Z M 245.101562 183.632812 C 243.699219 183.007812 241.828125 183.761719 240.4375 183.839844 C 241.828125 184.113281 243.617188 183.433594 245.101562 183.632812 Z M 244.824219 204.324219 C 243.863281 202.058594 242.425781 200.113281 240.625 198.429688 C 233.980469 192.722656 230.84375 187.035156 238.164062 180.109375 C 235.308594 181.863281 232.957031 184.691406 232.96875 188.175781 C 231.320312 184.28125 233.976562 180.34375 236.742188 177.746094 C 230.457031 181.320312 228.714844 190.125 233.507812 195.675781 L 233.59375 195.625 C 232.871094 194.242188 232.277344 192.824219 232.496094 191.191406 C 233.339844 195.503906 235.636719 198.949219 238.855469 201.839844 C 237.019531 200.757812 235.710938 199.179688 234.570312 197.421875 C 235.90625 201.417969 239.632812 203.660156 242.957031 205.863281 C 246.214844 208.238281 250.425781 208.992188 254.34375 208.285156 C 250.929688 208.273438 246.542969 207.769531 244.824219 204.324219 Z M 244.824219 204.324219 " fill-opacity="1" fill-rule="nonzero"/></g></svg>